<?xml version="1.0" encoding="UTF-8" standalone="no"?>
<!-- Created with Inkscape (http://www.inkscape.org/) -->

<svg
   xmlns:dc="http://purl.org/dc/elements/1.1/"
   xmlns:cc="http://creativecommons.org/ns#"
   xmlns:rdf="http://www.w3.org/1999/02/22-rdf-syntax-ns#"
   xmlns:svg="http://www.w3.org/2000/svg"
   xmlns="http://www.w3.org/2000/svg"
   xmlns:sodipodi="http://sodipodi.sourceforge.net/DTD/sodipodi-0.dtd"
   xmlns:inkscape="http://www.inkscape.org/namespaces/inkscape"
   width="725.12097"
   height="714.80945"
   id="svg2"
   version="1.1"
   inkscape:version="0.48.4 r9939"
   sodipodi:docname="recover_logo_white_2.svg">
  <defs
     id="defs4" />
  <sodipodi:namedview
     id="base"
     pagecolor="#ffffff"
     bordercolor="#666666"
     borderopacity="1.0"
     inkscape:pageopacity="0.0"
     inkscape:pageshadow="2"
     inkscape:zoom="0.35"
     inkscape:cx="367.5605"
     inkscape:cy="194.16812"
     inkscape:document-units="px"
     inkscape:current-layer="layer1"
     showgrid="false"
     inkscape:window-width="1467"
     inkscape:window-height="698"
     inkscape:window-x="417"
     inkscape:window-y="105"
     inkscape:window-maximized="0"
     fit-margin-top="0"
     fit-margin-left="0"
     fit-margin-right="0"
     fit-margin-bottom="0" />
  <metadata
     id="metadata7">
    <rdf:RDF>
      <cc:Work
         rdf:about="">
        <dc:format>image/svg+xml</dc:format>
        <dc:type
           rdf:resource="http://purl.org/dc/dcmitype/StillImage" />
        <dc:title></dc:title>
      </cc:Work>
    </rdf:RDF>
  </metadata>
  <g
     inkscape:label="Layer 1"
     inkscape:groupmode="layer"
     id="layer1"
     transform="translate(-7.4395039,-11.720846)">
    <g
       id="XMLID_1_"
       transform="matrix(1.5400736,0,0,1.5400736,-239.97486,-240.54167)">
      <path
         id="path3220"
         d="m 586.205,515.474 c -0.595,22.115 -3.807,54.91 -9.637,77.073 -11.033,4.24 -13.956,-12.543 -24.091,-14.454 -46.559,31.431 -102.931,56.677 -184.678,48.182 -55.393,-14.182 -102.642,-36.521 -131.679,-77.074 5.733,-14.085 20.349,-19.272 30.515,-28.908 31.093,28.33 65.735,53.095 115.619,62.619 61.688,3.356 104.729,-11.949 134.891,-40.135 -0.609,-7.95 -9.25,-7.886 -8.029,-17.667 22.917,-5.991 50.541,-7.259 77.089,-9.636 z"
         inkscape:connector-curvature="0"
         style="fill:#ffffff" />
      <path
         id="path3222"
         d="m 472.192,367.734 c 43.01,-0.739 67.951,16.623 64.225,62.635 -24.845,60.934 -163.848,34.852 -232.843,32.105 -9.17,-1.542 -18.261,-6.36 -21.473,-17.072 -3.758,-31.575 14.519,-60.532 50.381,-58.396 -4.657,-80.815 125.77,-90.949 139.71,-19.272 z"
         inkscape:connector-curvature="0"
         style="fill:#ffffff" />
      <path
         id="path3224"
         d="m 362.981,181.466 c 4.85,11.21 4.336,27.785 8.03,40.135 -81.539,23.368 -133.622,76.207 -147.739,167.012 -1.108,19.85 1.525,35.959 8.03,48.181 9.106,1.59 10.182,-4.818 19.272,-3.212 -3.582,23.239 -15.547,51.843 -25.697,73.861 -22.372,-7.115 -46.96,-25.793 -64.226,-43.363 3.421,-9.411 21.007,-4.689 24.091,-14.454 -21.889,-150.791 60.324,-246.575 178.239,-268.16 z"
         inkscape:connector-curvature="0"
         style="fill:#ffffff" />
      <path
         id="path3226"
         d="m 475.404,163.799 c 4.963,5.846 -5.862,14.133 0,20.879 83.177,29.744 137.686,88.188 155.753,183.056 0.836,43.652 1.285,86.935 -14.454,114.013 -13.442,1.478 -28.668,-8.641 -40.135,-14.455 35.381,-114.092 -25.696,-214.55 -117.225,-237.661 -9.315,4.063 -3.742,23.031 -12.849,27.303 -17.136,-18.742 -31.703,-40.022 -43.362,-64.241 19.257,-14.471 47.556,-19.883 72.272,-28.894 z"
         inkscape:connector-curvature="0"
         style="fill:#ffffff" />
      <path
         id="path3228"
         d="m 1.671,0 c 267.116,0 534.216,0 801.316,0 0,267.63 0,535.292 0,802.922 -267.63,0 -535.292,0 -802.922,0 0,-266.04 0,-532.064 0,-798.104 C -0.063,2.537 -0.192,0.273 1.671,0 z"
         display="none"
         inkscape:connector-curvature="0"
         style="fill:#ffffff;display:none" />
    </g>
  </g>
</svg>
